<svg xmlns="http://www.w3.org/2000/svg" version="1.1" xmlns:xlink="http://www.w3.org/1999/xlink" viewBox="0 0 13.545946673502552 5.834763130537827"><g transform="matrix(0.7832083653212855,0,0,0.7832083653212855,2.1007878798258517,2.1296051601024493)"><g transform="matrix(1,0,0,1,0,0)" clip-path="url(#SvgjsClipPath44312)"><g clip-path="url(#SvgjsClipPath44310b8fa8361-2bab-49eb-9547-f060db4bb67d)"><path d=" M 11.678157694589375 1.2351619411344814 C 11.706406014854988 1.292805998929884 11.754269706446241 1.3587402706382974 11.812226696222782 1.4489938277380354 C 11.912792107177172 1.6056088335363132 11.967321746684103 1.6380792519601435 11.90334950882568 1.693016199759983 C 11.891855467486726 1.7028959094502076 11.781966670364135 1.7654972072007842 11.732329697546431 1.786106013387182 C 11.666887176094091 1.8133112270490008 11.652606549970715 1.8119005495467275 11.650833268744265 1.926592604221076 C 11.65499079363653 1.9896260461360822 11.697172037824256 2.057924692813099 11.701329562716522 2.120913430159371 C 11.70723553296372 2.210521254599617 11.586950440023312 2.220256916235031 11.584163855238888 2.262721289358071 C 11.579981494475103 2.3265643806845944 11.749074042124484 2.3119956584515995 11.643705373618335 2.40119120742463 C 11.594659494542782 2.442721751778559 11.592314988271397 2.5482195668166066 11.591887811281271 2.6614711409428606 C 11.590924179466338 2.9155669424528803 11.39071725197806 2.8323419369929947 11.153852578127863 2.836424954270707 C 11.076682558144292 2.8377611241584226 11.004757874225513 2.8423855634352453 10.93772585699596 2.8499555370742122 C 10.726670620828221 2.873753269163637 10.626875121890917 2.9999642010484573 10.57237528542981 3.1156993623266027 L 9.300103127956046 3.1156993623266027 C 9.304573584829452 2.435693200138708 9.098227229901697 2.1976662075014275 8.930977503919019 2.0113375650179206 C 8.891713214626865 1.9681376729607936 8.85610373242582 1.9217521397376787 8.824516057066038 1.872659025630602 C 8.775737234804593 1.787256066356216 8.733185514778565 1.6984441043778118 8.697192478137172 1.606915200378216 L 9.161086820716072 1.606915200378216 L 9.161086820716072 0.6392202368638129 L 8.618770730229043 0.6392202368638129 C 8.651034256547133 0.5049085639549913 8.701504233135964 0.3756369050451984 8.76877939420329 0.25499440294328624 L 9.310489489425256 0.25499440294328624 L 9.310489489425256 -0.3155749749836604 C 9.514743465260814 -0.4456439902868192 9.746048619775754 -0.5272573166073418 9.986700730445058 -0.5541682254915732 L 9.986700730445058 -0.3905991756679986 L 10.314012681192839 -0.3905991756679986 L 10.314012681192839 -0.554550697912964 C 10.525336144772984 -0.5320593326654356 10.739520700752108 -0.46473425215195974 10.946145217440872 -0.34443922486294365 C 11.391452393775019 -0.08524213534293912 11.56742447783514 0.46427635788457344 11.532351260076126 0.8429538581077756 C 11.519401836666164 0.9827301430162299 11.59186297540975 1.0592643646889182 11.678142793066462 1.235156973960177 Z M 8.115158861917093 2.023134603989403 L 8.442495648536392 2.023134603989403 L 8.442495648536392 2.3504366203885763 L 8.115158861917093 2.3504366203885763 L 8.115158861917093 2.023134603989403 Z M 8.143605869154857 -1.0257616882413383 L 8.357060250511324 -1.0257616882413383 L 8.357060250511324 -0.8123122740591753 L 8.143600901980554 -0.8123122740591753 L 8.143600901980554 -1.0257616882413383 Z M 7.517458777942884 0.9238542259934908 L 7.730918126473655 0.9238542259934908 L 7.730918126473655 1.13729867300135 L 7.517458777942884 1.13729867300135 L 7.517458777942884 0.9238542259934908 Z M 7.780719016043383 -0.26439817813178257 L 8.29301847221265 -0.26439817813178257 L 8.29301847221265 0.24788140934026837 L 7.780719016043383 0.24788140934026837 L 7.780719016043383 -0.2644180468289983 Z M 9.438568078848302 -1.1039996507002239 L 9.765880029596081 -1.1039996507002239 L 9.765880029596081 -0.7766926671267463 L 9.438568078848302 -0.7766926671267463 L 9.438568078848302 -1.1039996507002239 Z M 8.657574295890196 -0.3979456264632947 L 8.657574295890196 0.16794467326948848 L 9.22343975975146 0.16794467326948848 L 9.22343975975146 -0.3979456264632947 Z M 9.673361441013821 1.2867162432334458 L 9.673361441013821 1.7421266521014875 L 10.12875694835895 1.7421266521014875 L 10.12875694835895 1.2867162432334458 Z M 8.307239492244381 0.753072839080823 L 8.307239492244381 1.4930774996841112 L 9.047224284150452 1.4930774996841112 L 9.047224284150452 0.7530579375579116 Z M 9.60222157063504 1.215576372854667 L 9.60222157063504 1.8132367194344436 L 10.199901785912033 1.8132367194344436 L 10.199901785912033 1.215561471331754 Z M 9.42390001312923 2.1472543554923345 L 9.42390001312923 2.375789078035085 L 9.652424801323374 2.375789078035085 L 9.652424801323374 2.1472543554923345 Z M 9.61641775479525 0.09847377345678243 L 9.61641775479525 0.6534511912441514 L 10.171410074105534 0.6534511912441514 L 10.171410074105534 0.09845887193386793 Z M 10.30618441449008 0.8949651402426908 L 10.30618441449008 1.1234998627854422 L 10.534709202684223 1.1234998627854422 L 10.534709202684223 0.8949651402426908 Z M 10.79003686342158 0.11229245236990737 L 10.79003686342158 0.3408172405640517 L 11.018556684441421 0.3408172405640517 L 11.018556684441421 0.11227755084699287 Z M 10.761579921835208 1.5211221658032719 L 10.761579921835208 1.7496568883460217 L 10.990159348946694 1.7496568883460217 L 10.990159348946694 1.521127132977573 Z" fill="#382d5e" transform="matrix(1,0,0,1,0,0)" fill-rule="evenodd"></path></g></g><g><path d=" M 4.5481278076171865 1.0517578125 L 4.6792313232421865 0.739013671875 L 4.6382156982421865 0.739013671875 Q 4.6213699951171865 0.739013671875 4.6059891357421865 0.7386474609375 Q 4.5906082763671865 0.73828125 4.5781571044921865 0.73828125 L 4.6199051513671865 0.667236328125 Q 4.6433426513671865 0.668701171875 4.6653153076171865 0.668701171875 Q 4.6872879638671865 0.668701171875 4.7085281982421865 0.668701171875 L 4.8469559326171865 0.340576171875 Q 4.8806473388671865 0.2607421875 4.9267899169921865 0.1973876953125 Q 4.9729324951171865 0.134033203125 5.0274979248046865 0.090087890625 Q 5.0820633544921865 0.046142578125 5.1424881591796865 0.0230712890625 Q 5.2029129638671865 0 5.2651688232421865 0 Q 5.3032547607421865 0 5.3428055419921865 0.012451171875 Q 5.3823563232421865 0.02490234375 5.4142166748046865 0.050537109375 Q 5.4460770263671865 0.076171875 5.4662186279296865 0.1146240234375 Q 5.4863602294921865 0.153076171875 5.4863602294921865 0.205810546875 Q 5.4863602294921865 0.267333984375 5.4614578857421865 0.325927734375 Q 5.4365555419921865 0.384521484375 5.3922440185546865 0.43798828125 Q 5.3479324951171865 0.491455078125 5.2871414794921865 0.5386962890625 Q 5.2263504638671865 0.5859375 5.1553055419921865 0.62548828125 Q 5.1047684326171865 0.654052734375 5.0545975341796865 0.6734619140625 Q 5.0044266357421865 0.69287109375 4.9560867919921865 0.705322265625 Q 4.9077469482421865 0.7177734375 4.8623367919921865 0.72509765625 Q 4.8169266357421865 0.732421875 4.7751785888671865 0.7353515625 L 4.6426102294921865 1.0517578125 L 4.5481278076171865 1.0517578125 M 4.8030106201171865 0.667236328125 Q 4.8630692138671865 0.6650390625 4.9132401123046865 0.6588134765625 Q 4.9634110107421865 0.652587890625 5.0055252685546865 0.6434326171875 Q 5.0476395263671865 0.63427734375 5.0835281982421865 0.62109375 Q 5.1194168701171865 0.60791015625 5.1509110107421865 0.591064453125 Q 5.2087723388671865 0.560302734375 5.2534500732421865 0.5130615234375 Q 5.2981278076171865 0.4658203125 5.3281571044921865 0.41162109375 Q 5.3581864013671865 0.357421875 5.3735672607421865 0.301025390625 Q 5.3889481201171865 0.24462890625 5.3889481201171865 0.19482421875 Q 5.3889481201171865 0.14794921875 5.3768631591796865 0.11572265625 Q 5.3647781982421865 0.08349609375 5.3453690185546865 0.063720703125 Q 5.3259598388671865 0.0439453125 5.3010574951171865 0.0355224609375 Q 5.2761551513671865 0.027099609375 5.2505203857421865 0.027099609375 Q 5.2219559326171865 0.027099609375 5.1838699951171865 0.04248046875 Q 5.1457840576171865 0.057861328125 5.1040360107421865 0.0941162109375 Q 5.0622879638671865 0.13037109375 5.0198074951171865 0.1904296875 Q 4.9773270263671865 0.25048828125 4.9399735107421865 0.340576171875 L 4.8030106201171865 0.667236328125 M 5.4555985107421865 0.92724609375 Q 5.4526688232421865 0.9345703125 5.4504715576171865 0.9415283203125 Q 5.4482742919921865 0.948486328125 5.4482742919921865 0.95361328125 Q 5.4482742919921865 0.96240234375 5.4523026123046865 0.96533203125 Q 5.4563309326171865 0.96826171875 5.4629227294921865 0.96826171875 Q 5.4731766357421865 0.96826171875 5.4878250732421865 0.9580078125 Q 5.5024735107421865 0.94775390625 5.5185867919921865 0.927978515625 L 5.6526199951171865 0.762451171875 L 5.6709305419921865 0.777099609375 L 5.5090653076171865 0.97705078125 Q 5.4914871826171865 0.9990234375 5.4772049560546865 1.013671875 Q 5.4629227294921865 1.0283203125 5.4501053466796865 1.0367431640625 Q 5.4372879638671865 1.045166015625 5.4244705810546865 1.048828125 Q 5.4116531982421865 1.052490234375 5.3977371826171865 1.052490234375 Q 5.3757645263671865 1.052490234375 5.3611160888671865 1.0396728515625 Q 5.3464676513671865 1.02685546875 5.3464676513671865 1.007080078125 Q 5.3464676513671865 0.98876953125 5.3556229248046865 0.9638671875 Q 5.3647781982421865 0.93896484375 5.3794266357421865 0.903076171875 L 5.5178543701171865 0.57275390625 Q 5.5061356201171865 0.591064453125 5.4907547607421865 0.61376953125 Q 5.4753739013671865 0.636474609375 5.4537674560546865 0.6650390625 Q 5.4321610107421865 0.693603515625 5.4046951904296865 0.7291259765625 Q 5.3772293701171865 0.7646484375 5.3413406982421865 0.80859375 L 5.3230301513671865 0.7939453125 Q 5.3735672607421865 0.731689453125 5.4109207763671865 0.6822509765625 Q 5.4482742919921865 0.6328125 5.4753739013671865 0.59326171875 Q 5.5024735107421865 0.5537109375 5.5215164794921865 0.522216796875 Q 5.5405594482421865 0.49072265625 5.5552078857421865 0.462890625 Q 5.5698563232421865 0.43505859375 5.5819412841796865 0.4097900390625 Q 5.5940262451171865 0.384521484375 5.6079422607421865 0.357421875 L 5.6914383544921865 0.158935546875 L 5.7793289794921865 0.158935546875 L 5.4555985107421865 0.92724609375 M 5.7917801513671865 0.891357421875 Q 5.7837235107421865 0.908935546875 5.7785965576171865 0.9276123046875 Q 5.7734696044921865 0.9462890625 5.7734696044921865 0.958740234375 Q 5.7734696044921865 0.9755859375 5.7822586669921865 0.9796142578125 Q 5.7910477294921865 0.983642578125 5.8013016357421865 0.983642578125 Q 5.8122879638671865 0.983642578125 5.8269364013671865 0.9678955078125 Q 5.8415848388671865 0.9521484375 5.8587967529296865 0.926513671875 Q 5.8760086669921865 0.90087890625 5.8954178466796865 0.8671875 Q 5.9148270263671865 0.83349609375 5.9346024169921865 0.7979736328125 Q 5.9543778076171865 0.762451171875 5.9741531982421865 0.7269287109375 Q 5.9939285888671865 0.69140625 6.0129715576171865 0.661376953125 Q 6.0386063232421865 0.620361328125 6.0558182373046865 0.5936279296875 Q 6.0730301513671865 0.56689453125 6.0876785888671865 0.55078125 Q 6.1023270263671865 0.53466796875 6.1166092529296865 0.5284423828125 Q 6.1308914794921865 0.522216796875 6.1513992919921865 0.522216796875 Q 6.1667801513671865 0.522216796875 6.1763016357421865 0.5302734375 Q 6.1858231201171865 0.538330078125 6.1858231201171865 0.550048828125 Q 6.1858231201171865 0.5595703125 6.1832596435546865 0.56982421875 Q 6.1806961669921865 0.580078125 6.1770340576171865 0.588134765625 Q 6.1741043701171865 0.5947265625 6.1642166748046865 0.61962890625 Q 6.1543289794921865 0.64453125 6.1400467529296865 0.6793212890625 Q 6.1257645263671865 0.714111328125 6.1100174560546865 0.753662109375 Q 6.0942703857421865 0.793212890625 6.0799881591796865 0.8287353515625 Q 6.0657059326171865 0.8642578125 6.0543533935546865 0.891357421875 Q 6.0430008544921865 0.91845703125 6.0393387451171865 0.92724609375 Q 6.0364090576171865 0.933837890625 6.0342117919921865 0.941162109375 Q 6.0320145263671865 0.948486328125 6.0320145263671865 0.95361328125 Q 6.0320145263671865 0.96240234375 6.0360428466796865 0.96533203125 Q 6.0400711669921865 0.96826171875 6.0466629638671865 0.96826171875 Q 6.0569168701171865 0.96826171875 6.0715653076171865 0.9580078125 Q 6.0862137451171865 0.94775390625 6.1023270263671865 0.927978515625 L 6.2363602294921865 0.762451171875 L 6.2546707763671865 0.777099609375 L 6.0928055419921865 0.97705078125 Q 6.0752274169921865 0.9990234375 6.0598465576171865 1.013671875 Q 6.0444656982421865 1.0283203125 6.0309158935546865 1.0367431640625 Q 6.0173660888671865 1.045166015625 6.0038162841796865 1.048828125 Q 5.9902664794921865 1.052490234375 5.9763504638671865 1.052490234375 Q 5.9543778076171865 1.052490234375 5.9397293701171865 1.0396728515625 Q 5.9250809326171865 1.02685546875 5.9250809326171865 1.007080078125 Q 5.9250809326171865 0.985107421875 5.9335037841796865 0.961669921875 Q 5.9419266357421865 0.938232421875 5.9580399169921865 0.903076171875 Q 5.9638992919921865 0.890625 5.9723221435546865 0.8704833984375 Q 5.9807449951171865 0.850341796875 5.9902664794921865 0.8280029296875 Q 5.9997879638671865 0.8056640625 6.0093094482421865 0.782958984375 Q 6.0188309326171865 0.76025390625 6.0261551513671865 0.7415771484375 Q 6.0334793701171865 0.722900390625 6.0382401123046865 0.71044921875 Q 6.0430008544921865 0.697998046875 6.0430008544921865 0.69580078125 Q 6.0430008544921865 0.6884765625 6.0378739013671865 0.6884765625 Q 6.0312821044921865 0.6884765625 6.0239578857421865 0.699462890625 Q 5.9778153076171865 0.769775390625 5.9433914794921865 0.8338623046875 Q 5.9089676513671865 0.89794921875 5.8774735107421865 0.9466552734375 Q 5.8459793701171865 0.995361328125 5.8141190185546865 1.02392578125 Q 5.7822586669921865 1.052490234375 5.7419754638671865 1.052490234375 Q 5.7178055419921865 1.052490234375 5.7005936279296865 1.0345458984375 Q 5.6833817138671865 1.0166015625 5.6833817138671865 0.983642578125 Q 5.6833817138671865 0.970458984375 5.6859451904296865 0.95654296875 Q 5.6885086669921865 0.942626953125 5.6921707763671865 0.9305419921875 Q 5.6958328857421865 0.91845703125 5.6991287841796865 0.908935546875 Q 5.7024246826171865 0.8994140625 5.7046219482421865 0.89501953125 L 5.8144852294921865 0.632080078125 Q 5.8166824951171865 0.626953125 5.8166824951171865 0.6240234375 Q 5.8166824951171865 0.61962890625 5.8141190185546865 0.6177978515625 Q 5.8115555419921865 0.615966796875 5.8078934326171865 0.615966796875 Q 5.8005692138671865 0.615966796875 5.7947098388671865 0.6240234375 L 5.6496903076171865 0.803466796875 L 5.6313797607421865 0.788818359375 L 5.7961746826171865 0.585205078125 Q 5.8152176513671865 0.561767578125 5.8360916748046865 0.5438232421875 Q 5.8569656982421865 0.52587890625 5.8796707763671865 0.52587890625 Q 5.9009110107421865 0.52587890625 5.9104324951171865 0.5372314453125 Q 5.9199539794921865 0.548583984375 5.9199539794921865 0.5625 Q 5.9199539794921865 0.576416015625 5.9148270263671865 0.593994140625 Q 5.9097000732421865 0.611572265625 5.9016434326171865 0.630615234375 L 5.7917801513671865 0.891357421875 M 6.5835281982421865 0.361083984375 L 6.7908035888671865 0.361083984375 L 6.7768875732421865 0.39111328125 L 6.5710770263671865 0.39111328125 L 6.3447586669921865 0.92724609375 Q 6.3418289794921865 0.9345703125 6.3388992919921865 0.9437255859375 Q 6.3359696044921865 0.952880859375 6.3359696044921865 0.9609375 Q 6.3359696044921865 0.9697265625 6.3410965576171865 0.9752197265625 Q 6.3462235107421865 0.980712890625 6.3557449951171865 0.980712890625 Q 6.3725906982421865 0.980712890625 6.3930985107421865 0.9642333984375 Q 6.4136063232421865 0.94775390625 6.4297196044921865 0.927978515625 L 6.5637528076171865 0.762451171875 L 6.5820633544921865 0.777099609375 L 6.4275223388671865 0.96826171875 Q 6.3916336669921865 1.01220703125 6.3594071044921865 1.0323486328125 Q 6.3271805419921865 1.052490234375 6.2986160888671865 1.052490234375 Q 6.2876297607421865 1.052490234375 6.2766434326171865 1.0491943359375 Q 6.2656571044921865 1.0458984375 6.2568680419921865 1.0396728515625 Q 6.2480789794921865 1.033447265625 6.2425858154296865 1.0235595703125 Q 6.2370926513671865 1.013671875 6.2370926513671865 1.00048828125 Q 6.2370926513671865 0.982177734375 6.2455155029296865 0.9605712890625 Q 6.2539383544921865 0.93896484375 6.2685867919921865 0.903076171875 L 6.4070145263671865 0.57275390625 Q 6.3952957763671865 0.591064453125 6.3799149169921865 0.61376953125 Q 6.3645340576171865 0.636474609375 6.3432938232421865 0.6650390625 Q 6.3220535888671865 0.693603515625 6.2942215576171865 0.7291259765625 Q 6.2663895263671865 0.7646484375 6.2305008544921865 0.80859375 L 6.2121903076171865 0.7939453125 Q 6.2803055419921865 0.71044921875 6.3242508544921865 0.6500244140625 Q 6.3681961669921865 0.589599609375 6.3971268310546865 0.5438232421875 Q 6.4260574951171865 0.498046875 6.4447342529296865 0.462158203125 Q 6.4634110107421865 0.42626953125 6.4802567138671865 0.39111328125 L 6.3022781982421865 0.39111328125 L 6.3161942138671865 0.361083984375 L 6.4956375732421865 0.361083984375 L 6.5534989013671865 0.22412109375 L 6.6413895263671865 0.22412109375 L 6.5835281982421865 0.361083984375 M 7.0632645263671865 0.78662109375 Q 7.0398270263671865 0.816650390625 7.0193192138671865 0.837158203125 Q 6.9988114013671865 0.857666015625 6.9790360107421865 0.870849609375 Q 6.9592606201171865 0.884033203125 6.9405838623046865 0.890625 Q 6.9219071044921865 0.897216796875 6.9028641357421865 0.8994140625 Q 6.8808914794921865 0.931640625 6.8541580810546865 0.9598388671875 Q 6.8274246826171865 0.988037109375 6.7977615966796865 1.0089111328125 Q 6.7680985107421865 1.02978515625 6.7351395263671865 1.0418701171875 Q 6.7021805419921865 1.053955078125 6.6684891357421865 1.053955078125 Q 6.6413895263671865 1.053955078125 6.6157547607421865 1.0447998046875 Q 6.5901199951171865 1.03564453125 6.5699783935546865 1.0169677734375 Q 6.5498367919921865 0.998291015625 6.5377518310546865 0.9700927734375 Q 6.5256668701171865 0.94189453125 6.5256668701171865 0.90380859375 Q 6.5256668701171865 0.844482421875 6.5469071044921865 0.7862548828125 Q 6.5681473388671865 0.72802734375 6.6062332763671865 0.677490234375 Q 6.6443192138671865 0.626953125 6.6977860107421865 0.586669921875 Q 6.7512528076171865 0.54638671875 6.8157059326171865 0.522216796875 L 6.8222977294921865 0.532470703125 Q 6.7659012451171865 0.58154296875 6.7252518310546865 0.63720703125 Q 6.6846024169921865 0.69287109375 6.6582352294921865 0.7489013671875 Q 6.6318680419921865 0.804931640625 6.6190506591796865 0.857666015625 Q 6.6062332763671865 0.910400390625 6.6062332763671865 0.95361328125 Q 6.6062332763671865 0.967529296875 6.6091629638671865 0.9803466796875 Q 6.6120926513671865 0.9931640625 6.6183182373046865 1.0030517578125 Q 6.6245438232421865 1.012939453125 6.6333328857421865 1.018798828125 Q 6.6421219482421865 1.024658203125 6.6545731201171865 1.024658203125 Q 6.6706864013671865 1.024658203125 6.6900955810546865 1.013671875 Q 6.7095047607421865 1.002685546875 6.7300125732421865 0.9840087890625 Q 6.7505203857421865 0.96533203125 6.7713944091796865 0.939697265625 Q 6.7922684326171865 0.9140625 6.8120438232421865 0.884765625 Q 6.7768875732421865 0.86572265625 6.7615067138671865 0.8302001953125 Q 6.7461258544921865 0.794677734375 6.7461258544921865 0.7529296875 Q 6.7461258544921865 0.714111328125 6.7600418701171865 0.6771240234375 Q 6.7739578857421865 0.64013671875 6.7959305419921865 0.611572265625 Q 6.8179031982421865 0.5830078125 6.8442703857421865 0.5657958984375 Q 6.8706375732421865 0.548583984375 6.8955399169921865 0.548583984375 Q 6.9087235107421865 0.548583984375 6.9241043701171865 0.554443359375 Q 6.9394852294921865 0.560302734375 6.9526688232421865 0.57421875 Q 6.9658524169921865 0.588134765625 6.9746414794921865 0.611572265625 Q 6.9834305419921865 0.635009765625 6.9834305419921865 0.670166015625 Q 6.9834305419921865 0.717041015625 6.9665848388671865 0.7694091796875 Q 6.9497391357421865 0.82177734375 6.9204422607421865 0.872314453125 Q 6.9336258544921865 0.869384765625 6.9471756591796865 0.86279296875 Q 6.9607254638671865 0.856201171875 6.9757401123046865 0.844482421875 Q 6.9907547607421865 0.832763671875 7.0079666748046865 0.8148193359375 Q 7.0251785888671865 0.796875 7.0456864013671865 0.771240234375 L 7.0632645263671865 0.78662109375 M 6.7732254638671865 0.750732421875 Q 6.7732254638671865 0.790283203125 6.7860428466796865 0.819580078125 Q 6.7988602294921865 0.848876953125 6.8259598388671865 0.863525390625 Q 6.8457352294921865 0.83203125 6.8625809326171865 0.79833984375 Q 6.8794266357421865 0.7646484375 6.8918778076171865 0.7320556640625 Q 6.9043289794921865 0.699462890625 6.9116531982421865 0.6697998046875 Q 6.9189774169921865 0.64013671875 6.9189774169921865 0.61669921875 Q 6.9189774169921865 0.60498046875 6.9153153076171865 0.59765625 Q 6.9116531982421865 0.59033203125 6.9061600341796865 0.5863037109375 Q 6.9006668701171865 0.582275390625 6.8944412841796865 0.580810546875 Q 6.8882156982421865 0.579345703125 6.8838211669921865 0.579345703125 Q 6.8699051513671865 0.579345703125 6.8508621826171865 0.5936279296875 Q 6.8318192138671865 0.60791015625 6.8146072998046865 0.6317138671875 Q 6.7973953857421865 0.655517578125 6.7853104248046865 0.6866455078125 Q 6.7732254638671865 0.7177734375 6.7732254638671865 0.750732421875" fill="#382d5e" fill-rule="nonzero"></path></g><g><path d=" M 0.52275 1.81066494140625 L 0.52275 1.5391649414062498 Q 0.52275 1.4799149414062498 0.51975 1.45141494140625 L 0.45 1.44241494140625 Q 0.4455 1.42891494140625 0.45 1.41541494140625 Q 0.49725 1.41766494140625 0.5415 1.41766494140625 Q 0.59025 1.41766494140625 0.63225 1.41466494140625 Q 0.63525 1.43116494140625 0.63225 1.44241494140625 L 0.5640000000000001 1.44991494140625 L 0.5640000000000001 2.01166494140625 L 0.52425 2.01166494140625 L 0.1935 1.5639149414062499 Q 0.17025 1.53316494140625 0.13875 1.48366494140625 Q 0.14250000000000002 1.51816494140625 0.14250000000000002 1.56691494140625 L 0.14250000000000002 1.88941494140625 Q 0.14250000000000002 1.94866494140625 0.1455 1.97716494140625 L 0.21525 1.9861649414062499 Q 0.21975 1.99966494140625 0.21525 2.01316494140625 Q 0.15075 2.01166494140625 0.12375 2.01166494140625 Q 0.0795 2.01166494140625 0.033 2.01391494140625 Q 0.03 1.9974149414062499 0.033 1.9861649414062499 L 0.10125 1.97866494140625 L 0.10125 1.53691494140625 Q 0.10125 1.47766494140625 0.09825 1.44916494140625 L 0.036000000000000004 1.44016494140625 Q 0.0315 1.42741494140625 0.036000000000000004 1.41466494140625 L 0.183 1.41466494140625 L 0.48375 1.82416494140625 Q 0.48975 1.83241494140625 0.496875 1.84366494140625 Q 0.504 1.85491494140625 0.512625 1.87066494140625 Q 0.52125 1.8864149414062499 0.5265 1.89466494140625 Q 0.52275 1.84966494140625 0.52275 1.81066494140625 M 0.6768991699218749 1.81216494140625 Q 0.6768991699218749 1.76716494140625 0.690024169921875 1.7277899414062499 Q 0.7031491699218749 1.68841494140625 0.727899169921875 1.65916494140625 Q 0.7526491699218749 1.62991494140625 0.7875241699218749 1.61303994140625 Q 0.8223991699218749 1.59616494140625 0.865899169921875 1.59616494140625 Q 0.9086491699218749 1.59616494140625 0.943899169921875 1.61303994140625 Q 0.979149169921875 1.62991494140625 1.004274169921875 1.65916494140625 Q 1.029399169921875 1.68841494140625 1.042899169921875 1.7277899414062499 Q 1.0563991699218749 1.76716494140625 1.0563991699218749 1.81216494140625 Q 1.0563991699218749 1.85866494140625 1.042524169921875 1.8976649414062499 Q 1.028649169921875 1.93666494140625 1.0035241699218749 1.96553994140625 Q 0.9783991699218749 1.99441494140625 0.9431491699218749 2.01053994140625 Q 0.9078991699218749 2.02666494140625 0.865899169921875 2.02666494140625 Q 0.8216491699218749 2.02666494140625 0.7867741699218749 2.01091494140625 Q 0.7518991699218749 1.99516494140625 0.727524169921875 1.96666494140625 Q 0.7031491699218749 1.93816494140625 0.690024169921875 1.89878994140625 Q 0.6768991699218749 1.85941494140625 0.6768991699218749 1.81216494140625 M 0.786399169921875 1.67416494140625 Q 0.754149169921875 1.71991494140625 0.754149169921875 1.81216494140625 Q 0.754149169921875 1.85791494140625 0.762774169921875 1.8924149414062499 Q 0.771399169921875 1.9269149414062499 0.786399169921875 1.94978994140625 Q 0.801399169921875 1.97266494140625 0.8216491699218749 1.98391494140625 Q 0.841899169921875 1.99516494140625 0.865899169921875 1.99516494140625 Q 0.889149169921875 1.99516494140625 0.9101491699218749 1.98391494140625 Q 0.931149169921875 1.97266494140625 0.9461491699218749 1.94978994140625 Q 0.9611491699218749 1.9269149414062499 0.9701491699218749 1.8924149414062499 Q 0.979149169921875 1.85791494140625 0.979149169921875 1.81216494140625 Q 0.979149169921875 1.76641494140625 0.9701491699218749 1.73153994140625 Q 0.9611491699218749 1.69666494140625 0.9457741699218749 1.67378994140625 Q 0.930399169921875 1.65091494140625 0.9097741699218749 1.63928994140625 Q 0.889149169921875 1.62766494140625 0.865899169921875 1.62766494140625 Q 0.819399169921875 1.62766494140625 0.786399169921875 1.67416494140625 M 1.2322591552734374 1.52116494140625 L 1.2322591552734374 1.6284149414062499 L 1.3380091552734374 1.6284149414062499 Q 1.3395091552734373 1.63741494140625 1.3395091552734373 1.64191494140625 Q 1.3395091552734373 1.64866494140625 1.3380091552734374 1.6576649414062499 L 1.2322591552734374 1.67341494140625 L 1.2322591552734374 1.8796649414062498 Q 1.2322591552734374 1.93516494140625 1.2423841552734374 1.95803994140625 Q 1.2525091552734373 1.98091494140625 1.2742591552734375 1.98091494140625 Q 1.2937591552734373 1.98091494140625 1.3350091552734373 1.96516494140625 Q 1.3425091552734374 1.97191494140625 1.3455091552734375 1.99066494140625 Q 1.3230091552734373 2.00416494140625 1.3113841552734373 2.01053994140625 Q 1.2997591552734373 2.01691494140625 1.2821341552734373 2.02178994140625 Q 1.2645091552734373 2.02666494140625 1.2450091552734373 2.02666494140625 Q 1.2075091552734374 2.02666494140625 1.1838841552734374 1.9977899414062499 Q 1.1602591552734374 1.96891494140625 1.1602591552734374 1.9096649414062499 L 1.1602591552734374 1.66441494140625 L 1.1077591552734374 1.6576649414062499 Q 1.1062591552734373 1.65016494140625 1.1062591552734373 1.6449149414062498 Q 1.1062591552734373 1.63891494140625 1.1077591552734374 1.6284149414062499 Q 1.1287591552734373 1.62466494140625 1.1441341552734374 1.61528994140625 Q 1.1595091552734373 1.60591494140625 1.1700091552734373 1.58903994140625 Q 1.1805091552734375 1.57216494140625 1.1861341552734375 1.55903994140625 Q 1.1917591552734375 1.54591494140625 1.2000091552734373 1.52116494140625 Q 1.2067591552734374 1.51891494140625 1.2165091552734373 1.51891494140625 Q 1.2255091552734374 1.51891494140625 1.2322591552734374 1.52116494140625 M 1.434397705078125 1.52491494140625 Q 1.434397705078125 1.47541494140625 1.4321477050781248 1.45141494140625 L 1.3728977050781248 1.44391494140625 Q 1.369897705078125 1.43266494140625 1.3728977050781248 1.41541494140625 Q 1.423147705078125 1.4116649414062499 1.501147705078125 1.3996649414062499 Q 1.5078977050781248 1.40716494140625 1.5086477050781248 1.41466494140625 Q 1.504897705078125 1.4341649414062498 1.504897705078125 1.53616494140625 L 1.504897705078125 1.67791494140625 Q 1.5603977050781248 1.60141494140625 1.6383977050781249 1.60141494140625 Q 1.6848977050781249 1.60141494140625 1.717897705078125 1.62466494140625 Q 1.750897705078125 1.64791494140625 1.750897705078125 1.7041649414062499 L 1.750897705078125 1.97341494140625 L 1.811647705078125 1.98466494140625 Q 1.814647705078125 1.99666494140625 1.811647705078125 2.01466494140625 Q 1.764397705078125 2.01241494140625 1.715647705078125 2.01241494140625 Q 1.681147705078125 2.01241494140625 1.6181477050781248 2.01391494140625 Q 1.613647705078125 1.99966494140625 1.6181477050781248 1.98466494140625 L 1.6773977050781248 1.97641494140625 Q 1.680397705078125 1.93516494140625 1.680397705078125 1.88116494140625 L 1.680397705078125 1.74166494140625 Q 1.680397705078125 1.68916494140625 1.6672727050781249 1.66591494140625 Q 1.6541477050781248 1.64266494140625 1.6196477050781248 1.64266494140625 Q 1.5911477050781249 1.64266494140625 1.5600227050781248 1.6636649414062499 Q 1.528897705078125 1.68466494140625 1.504897705078125 1.72441494140625 L 1.504897705078125 1.97341494140625 L 1.565647705078125 1.98466494140625 Q 1.568647705078125 1.99666494140625 1.565647705078125 2.01466494140625 Q 1.518397705078125 2.01241494140625 1.469647705078125 2.01241494140625 Q 1.435147705078125 2.01241494140625 1.372147705078125 2.01391494140625 Q 1.3676477050781248 1.99966494140625 1.372147705078125 1.98466494140625 L 1.4313977050781248 1.97641494140625 Q 1.434397705078125 1.93516494140625 1.434397705078125 1.88116494140625 L 1.434397705078125 1.52491494140625 M 1.9807514648437496 1.73266494140625 L 1.9807514648437496 1.97341494140625 L 2.0415014648437495 1.98466494140625 Q 2.0422514648437495 1.98841494140625 2.0426264648437495 1.9914149414062499 Q 2.0430014648437496 1.99441494140625 2.0430014648437496 1.99816494140625 Q 2.0430014648437496 2.00191494140625 2.0426264648437495 2.0060399414062497 Q 2.0422514648437495 2.01016494140625 2.0415014648437495 2.01466494140625 Q 1.9942514648437497 2.01241494140625 1.9447514648437498 2.01241494140625 Q 1.9275014648437496 2.01241494140625 1.9031264648437498 2.01278994140625 Q 1.8787514648437498 2.01316494140625 1.8472514648437497 2.01391494140625 Q 1.8450014648437498 2.00716494140625 1.8450014648437498 1.99966494140625 Q 1.8450014648437498 1.99291494140625 1.8472514648437497 1.98466494140625 L 1.9065014648437497 1.97641494140625 Q 1.9080014648437498 1.95541494140625 1.9087514648437498 1.93178994140625 Q 1.9095014648437498 1.90816494140625 1.9095014648437498 1.88116494140625 L 1.9095014648437498 1.72141494140625 Q 1.9095014648437498 1.67191494140625 1.9072514648437497 1.64791494140625 L 1.8480014648437497 1.6404149414062499 Q 1.8465014648437497 1.63666494140625 1.8465014648437497 1.62766494140625 Q 1.8465014648437497 1.62391494140625 1.8465014648437497 1.62016494140625 Q 1.8465014648437497 1.61641494140625 1.8480014648437497 1.61191494140625 Q 1.8990014648437497 1.60891494140625 1.9770014648437497 1.59616494140625 Q 1.9837514648437498 1.60366494140625 1.9845014648437498 1.6111649414062499 Q 1.9807514648437496 1.63216494140625 1.9807514648437496 1.73266494140625 M 1.8712514648437497 1.4649149414062501 Q 1.8697514648437497 1.46116494140625 1.8697514648437497 1.4570399414062498 Q 1.8697514648437497 1.45291494140625 1.8697514648437497 1.44916494140625 Q 1.8697514648437497 1.42891494140625 1.8866264648437496 1.41653994140625 Q 1.9035014648437498 1.40416494140625 1.9282514648437497 1.40416494140625 Q 1.9515014648437496 1.40416494140625 1.9661264648437498 1.4180399414062501 Q 1.9807514648437496 1.43191494140625 1.9807514648437496 1.45591494140625 Q 1.9807514648437496 1.47541494140625 1.9638764648437497 1.48741494140625 Q 1.9470014648437497 1.49941494140625 1.9207514648437498 1.49941494140625 Q 1.9027514648437498 1.49941494140625 1.8888764648437497 1.49041494140625 Q 1.8750014648437496 1.4814149414062499 1.8712514648437497 1.4649149414062501 M 2.392874633789062 1.74391494140625 Q 2.392874633789062 1.68616494140625 2.3774996337890624 1.66291494140625 Q 2.3621246337890622 1.63966494140625 2.326124633789062 1.63966494140625 Q 2.2706246337890623 1.63966494140625 2.2143746337890624 1.72291494140625 L 2.2143746337890624 1.97341494140625 L 2.275124633789062 1.98466494140625 Q 2.278124633789062 1.99666494140625 2.275124633789062 2.01466494140625 Q 2.2278746337890625 2.01241494140625 2.1783746337890624 2.01241494140625 Q 2.1438746337890624 2.01241494140625 2.0808746337890622 2.01391494140625 Q 2.076374633789062 1.99966494140625 2.0808746337890622 1.98466494140625 L 2.1401246337890623 1.97641494140625 Q 2.1431246337890624 1.93516494140625 2.1431246337890624 1.88116494140625 L 2.1431246337890624 1.6756649414062499 Q 2.1431246337890624 1.66066494140625 2.1408746337890623 1.64791494140625 L 2.0816246337890623 1.6404149414062499 Q 2.078624633789062 1.62916494140625 2.0816246337890623 1.61191494140625 Q 2.1333746337890624 1.60816494140625 2.2106246337890623 1.59616494140625 Q 2.217374633789062 1.60366494140625 2.218124633789062 1.6111649414062499 Q 2.2143746337890624 1.63066494140625 2.2143746337890624 1.67791494140625 Q 2.2736246337890624 1.59616494140625 2.347874633789062 1.59616494140625 Q 2.464124633789062 1.59616494140625 2.464124633789062 1.70641494140625 L 2.464124633789062 1.97341494140625 L 2.524874633789062 1.98466494140625 Q 2.5278746337890623 1.99666494140625 2.524874633789062 2.01466494140625 Q 2.477624633789062 2.01241494140625 2.4281246337890625 2.01241494140625 Q 2.393624633789062 2.01241494140625 2.3306246337890624 2.01391494140625 Q 2.326124633789062 1.99966494140625 2.3306246337890624 1.98466494140625 L 2.3898746337890624 1.97641494140625 Q 2.392874633789062 1.93516494140625 2.392874633789062 1.88116494140625 L 2.392874633789062 1.74391494140625 M 2.6272675781249997 2.01991494140625 Q 2.634017578125 2.02291494140625 2.6385175781249997 2.03266494140625 Q 2.6137675781249996 2.0529149414062497 2.6137675781249996 2.09341494140625 Q 2.6137675781249996 2.12941494140625 2.646767578125 2.15116494140625 Q 2.679767578125 2.17291494140625 2.7322675781249997 2.17291494140625 Q 2.786267578125 2.17291494140625 2.822267578125 2.15303994140625 Q 2.858267578125 2.13316494140625 2.858267578125 2.09716494140625 Q 2.858267578125 2.05816494140625 2.844017578125 2.03978994140625 Q 2.829767578125 2.02141494140625 2.787017578125 2.0176649414062497 L 2.646767578125 2.00491494140625 Q 2.623517578125 2.00191494140625 2.608142578125 1.98053994140625 Q 2.5927675781249997 1.95916494140625 2.5927675781249997 1.9389149414062499 L 2.643017578125 1.85566494140625 Q 2.608517578125 1.83616494140625 2.5908925781249996 1.8039149414062499 Q 2.573267578125 1.77166494140625 2.573267578125 1.73791494140625 Q 2.573267578125 1.67416494140625 2.620517578125 1.63516494140625 Q 2.667767578125 1.59616494140625 2.729267578125 1.59616494140625 Q 2.788517578125 1.59616494140625 2.833517578125 1.62766494140625 Q 2.8372675781249996 1.52491494140625 2.9100175781249997 1.52116494140625 Q 2.929517578125 1.52566494140625 2.929517578125 1.55341494140625 Q 2.929517578125 1.56841494140625 2.926517578125 1.5864149414062498 Q 2.8972675781249997 1.58866494140625 2.878517578125 1.60553994140625 Q 2.859767578125 1.6224149414062499 2.8515175781249997 1.64416494140625 Q 2.889017578125 1.68166494140625 2.889017578125 1.73791494140625 Q 2.889017578125 1.79716494140625 2.8410175781249998 1.83653994140625 Q 2.7930175781249997 1.87591494140625 2.729267578125 1.87591494140625 Q 2.695517578125 1.87591494140625 2.668517578125 1.86691494140625 L 2.643017578125 1.93366494140625 L 2.829767578125 1.95241494140625 Q 2.8732675781249997 1.95766494140625 2.8961425781249996 1.98428994140625 Q 2.9190175781249996 2.01091494140625 2.9190175781249996 2.0536649414062498 Q 2.9190175781249996 2.12866494140625 2.865017578125 2.16878994140625 Q 2.811017578125 2.20891494140625 2.718767578125 2.20891494140625 Q 2.642267578125 2.20891494140625 2.599517578125 2.18116494140625 Q 2.5567675781249997 2.15341494140625 2.5567675781249997 2.10691494140625 Q 2.5567675781249997 2.07541494140625 2.577017578125 2.05103994140625 Q 2.597267578125 2.02666494140625 2.6272675781249997 2.01991494140625 M 2.6407675781249997 1.73791494140625 Q 2.6407675781249997 1.78141494140625 2.6651425781249998 1.81216494140625 Q 2.689517578125 1.84291494140625 2.730017578125 1.84291494140625 Q 2.7697675781249997 1.84291494140625 2.795267578125 1.81253994140625 Q 2.820767578125 1.78216494140625 2.820767578125 1.73791494140625 Q 2.820767578125 1.68991494140625 2.795642578125 1.6580399414062499 Q 2.7705175781249998 1.62616494140625 2.730017578125 1.62616494140625 Q 2.691767578125 1.62616494140625 2.666267578125 1.65841494140625 Q 2.6407675781249997 1.69066494140625 2.6407675781249997 1.73791494140625 M 3.3247364501953123 1.3996649414062499 Q 3.4364864501953125 1.3996649414062499 3.4364864501953125 1.48816494140625 Q 3.4207364501953124 1.5046649414062498 3.3614864501953123 1.5039149414062498 Q 3.3539864501953125 1.42516494140625 3.323236450195312 1.42516494140625 Q 3.2947364501953125 1.42516494140625 3.2831114501953125 1.4705399414062499 Q 3.2714864501953125 1.5159149414062498 3.2714864501953125 1.63591494140625 L 3.3772364501953125 1.63591494140625 Q 3.381736450195312 1.65016494140625 3.3772364501953125 1.66516494140625 L 3.2714864501953125 1.6809149414062499 L 3.2714864501953125 1.96966494140625 L 3.3622364501953124 1.98466494140625 Q 3.3667364501953125 1.99966494140625 3.3622364501953124 2.01466494140625 Q 3.3149864501953124 2.01241494140625 3.2459864501953124 2.01241494140625 Q 3.205486450195312 2.01241494140625 3.1424864501953125 2.01391494140625 Q 3.1364864501953122 2.00041494140625 3.1424864501953125 1.98466494140625 L 3.1972364501953123 1.97266494140625 Q 3.2002364501953124 1.9329149414062499 3.2002364501953124 1.88116494140625 L 3.2002364501953124 1.67341494140625 L 3.146986450195312 1.66516494140625 Q 3.1424864501953125 1.65016494140625 3.146986450195312 1.63591494140625 L 3.2002364501953124 1.63591494140625 L 3.2002364501953124 1.58491494140625 Q 3.2002364501953124 1.5399149414062498 3.2129864501953125 1.49903994140625 Q 3.2257364501953125 1.4581649414062499 3.2553614501953123 1.42891494140625 Q 3.2849864501953125 1.3996649414062499 3.3247364501953123 1.3996649414062499 M 3.4271253662109373 1.81216494140625 Q 3.4271253662109373 1.76716494140625 3.4402503662109374 1.7277899414062499 Q 3.4533753662109374 1.68841494140625 3.4781253662109375 1.65916494140625 Q 3.5028753662109375 1.62991494140625 3.5377503662109375 1.61303994140625 Q 3.5726253662109375 1.59616494140625 3.6161253662109374 1.59616494140625 Q 3.6588753662109372 1.59616494140625 3.6941253662109377 1.61303994140625 Q 3.7293753662109372 1.62991494140625 3.7545003662109373 1.65916494140625 Q 3.7796253662109374 1.68841494140625 3.7931253662109374 1.7277899414062499 Q 3.8066253662109375 1.76716494140625 3.8066253662109375 1.81216494140625 Q 3.8066253662109375 1.85866494140625 3.7927503662109374 1.8976649414062499 Q 3.7788753662109373 1.93666494140625 3.7537503662109373 1.96553994140625 Q 3.728625366210937 1.99441494140625 3.6933753662109376 2.01053994140625 Q 3.658125366210937 2.02666494140625 3.6161253662109374 2.02666494140625 Q 3.5718753662109375 2.02666494140625 3.5370003662109375 2.01091494140625 Q 3.5021253662109375 1.99516494140625 3.4777503662109375 1.96666494140625 Q 3.4533753662109374 1.93816494140625 3.4402503662109374 1.89878994140625 Q 3.4271253662109373 1.85941494140625 3.4271253662109373 1.81216494140625 M 3.5366253662109375 1.67416494140625 Q 3.5043753662109376 1.71991494140625 3.5043753662109376 1.81216494140625 Q 3.5043753662109376 1.85791494140625 3.5130003662109375 1.8924149414062499 Q 3.5216253662109374 1.9269149414062499 3.5366253662109375 1.94978994140625 Q 3.5516253662109376 1.97266494140625 3.5718753662109375 1.98391494140625 Q 3.5921253662109374 1.99516494140625 3.6161253662109374 1.99516494140625 Q 3.6393753662109374 1.99516494140625 3.6603753662109373 1.98391494140625 Q 3.6813753662109376 1.97266494140625 3.6963753662109373 1.94978994140625 Q 3.7113753662109374 1.9269149414062499 3.7203753662109373 1.8924149414062499 Q 3.7293753662109372 1.85791494140625 3.7293753662109372 1.81216494140625 Q 3.7293753662109372 1.76641494140625 3.7203753662109373 1.73153994140625 Q 3.7113753662109374 1.69666494140625 3.6960003662109373 1.67378994140625 Q 3.6806253662109376 1.65091494140625 3.6600003662109373 1.63928994140625 Q 3.6393753662109374 1.62766494140625 3.6161253662109374 1.62766494140625 Q 3.5696253662109374 1.62766494140625 3.5366253662109375 1.67416494140625 M 3.9997353515625 1.6111649414062499 L 3.9982353515625 1.68841494140625 Q 4.0169853515625 1.65391494140625 4.0503603515625 1.62503994140625 Q 4.0837353515625 1.59616494140625 4.1137353515625 1.59616494140625 Q 4.1369853515625 1.59616494140625 4.1549853515625 1.60141494140625 Q 4.1609853515625 1.6111649414062499 4.1609853515625 1.62691494140625 Q 4.1609853515625 1.65166494140625 4.1504853515625 1.67641494140625 Q 4.1234853515625 1.6689149414062499 4.0987353515625 1.6689149414062499 Q 4.0372353515625 1.6689149414062499 3.9974853515625 1.72891494140625 L 3.9959853515625 1.86016494140625 L 3.9959853515625 1.97341494140625 L 4.0792353515625 1.98466494140625 Q 4.0822353515625 1.99666494140625 4.0792353515625 2.01466494140625 Q 4.0319853515625 2.01241494140625 3.9712353515625 2.01241494140625 Q 3.9254853515625 2.01241494140625 3.8624853515625 2.01391494140625 Q 3.8579853515624998 1.99966494140625 3.8624853515625 1.98466494140625 L 3.9217353515625 1.97641494140625 Q 3.9247353515625 1.93516494140625 3.9247353515625 1.88116494140625 L 3.9247353515625 1.6756649414062499 Q 3.9247353515625 1.66066494140625 3.9224853515625 1.64791494140625 L 3.8632353515625 1.6404149414062499 Q 3.8602353515625 1.62916494140625 3.8632353515625 1.61191494140625 Q 3.9149853515625 1.60816494140625 3.9922353515625 1.59616494140625 Q 3.9989853515625 1.60366494140625 3.9997353515625 1.6111649414062499 M 4.687462280273437 1.74391494140625 Q 4.687462280273437 1.68616494140625 4.672087280273437 1.66291494140625 Q 4.656712280273437 1.63966494140625 4.6207122802734375 1.63966494140625 Q 4.565212280273437 1.63966494140625 4.508962280273437 1.72291494140625 L 4.508962280273437 1.97341494140625 L 4.569712280273437 1.98466494140625 Q 4.5727122802734375 1.99666494140625 4.569712280273437 2.01466494140625 Q 4.522462280273437 2.01241494140625 4.472962280273437 2.01241494140625 Q 4.438462280273437 2.01241494140625 4.375462280273437 2.01391494140625 Q 4.370962280273437 1.99966494140625 4.375462280273437 1.98466494140625 L 4.434712280273438 1.97641494140625 Q 4.437712280273437 1.93516494140625 4.437712280273437 1.88116494140625 L 4.437712280273437 1.6756649414062499 Q 4.437712280273437 1.66066494140625 4.435462280273437 1.64791494140625 L 4.376212280273437 1.6404149414062499 Q 4.373212280273437 1.62916494140625 4.376212280273437 1.61191494140625 Q 4.427962280273437 1.60816494140625 4.505212280273437 1.59616494140625 Q 4.511962280273437 1.60366494140625 4.512712280273437 1.6111649414062499 Q 4.508962280273437 1.63066494140625 4.508962280273437 1.67791494140625 Q 4.568212280273437 1.59616494140625 4.642462280273437 1.59616494140625 Q 4.758712280273437 1.59616494140625 4.758712280273437 1.70641494140625 L 4.758712280273437 1.97341494140625 L 4.819462280273437 1.98466494140625 Q 4.822462280273437 1.99666494140625 4.819462280273437 2.01466494140625 Q 4.772212280273437 2.01241494140625 4.722712280273437 2.01241494140625 Q 4.688212280273437 2.01241494140625 4.625212280273437 2.01391494140625 Q 4.6207122802734375 1.99966494140625 4.625212280273437 1.98466494140625 L 4.684462280273437 1.97641494140625 Q 4.687462280273437 1.93516494140625 4.687462280273437 1.88116494140625 L 4.687462280273437 1.74391494140625 M 4.864105224609375 1.81216494140625 Q 4.864105224609375 1.76716494140625 4.877230224609375 1.7277899414062499 Q 4.890355224609375 1.68841494140625 4.915105224609374 1.65916494140625 Q 4.939855224609374 1.62991494140625 4.974730224609375 1.61303994140625 Q 5.009605224609374 1.59616494140625 5.053105224609375 1.59616494140625 Q 5.095855224609375 1.59616494140625 5.1311052246093745 1.61303994140625 Q 5.166355224609375 1.62991494140625 5.191480224609375 1.65916494140625 Q 5.216605224609375 1.68841494140625 5.230105224609375 1.7277899414062499 Q 5.243605224609374 1.76716494140625 5.243605224609374 1.81216494140625 Q 5.243605224609374 1.85866494140625 5.229730224609375 1.8976649414062499 Q 5.215855224609375 1.93666494140625 5.190730224609375 1.96553994140625 Q 5.165605224609375 1.99441494140625 5.130355224609374 2.01053994140625 Q 5.095105224609375 2.02666494140625 5.053105224609375 2.02666494140625 Q 5.008855224609374 2.02666494140625 4.973980224609375 2.01091494140625 Q 4.939105224609374 1.99516494140625 4.914730224609374 1.96666494140625 Q 4.890355224609375 1.93816494140625 4.877230224609375 1.89878994140625 Q 4.864105224609375 1.85941494140625 4.864105224609375 1.81216494140625 M 4.973605224609375 1.67416494140625 Q 4.941355224609374 1.71991494140625 4.941355224609374 1.81216494140625 Q 4.941355224609374 1.85791494140625 4.949980224609375 1.8924149414062499 Q 4.958605224609375 1.9269149414062499 4.973605224609375 1.94978994140625 Q 4.988605224609374 1.97266494140625 5.008855224609374 1.98391494140625 Q 5.029105224609375 1.99516494140625 5.053105224609375 1.99516494140625 Q 5.076355224609375 1.99516494140625 5.097355224609375 1.98391494140625 Q 5.118355224609375 1.97266494140625 5.1333552246093745 1.94978994140625 Q 5.148355224609375 1.9269149414062499 5.157355224609375 1.8924149414062499 Q 5.166355224609375 1.85791494140625 5.166355224609375 1.81216494140625 Q 5.166355224609375 1.76641494140625 5.157355224609375 1.73153994140625 Q 5.148355224609375 1.69666494140625 5.1329802246093745 1.67378994140625 Q 5.117605224609375 1.65091494140625 5.096980224609375 1.63928994140625 Q 5.076355224609375 1.62766494140625 5.053105224609375 1.62766494140625 Q 5.006605224609375 1.62766494140625 4.973605224609375 1.67416494140625 M 5.419465209960937 1.52116494140625 L 5.419465209960937 1.6284149414062499 L 5.525215209960937 1.6284149414062499 Q 5.526715209960937 1.63741494140625 5.526715209960937 1.64191494140625 Q 5.526715209960937 1.64866494140625 5.525215209960937 1.6576649414062499 L 5.419465209960937 1.67341494140625 L 5.419465209960937 1.8796649414062498 Q 5.419465209960937 1.93516494140625 5.429590209960937 1.95803994140625 Q 5.439715209960937 1.98091494140625 5.461465209960937 1.98091494140625 Q 5.480965209960937 1.98091494140625 5.522215209960938 1.96516494140625 Q 5.529715209960937 1.97191494140625 5.532715209960937 1.99066494140625 Q 5.510215209960937 2.00416494140625 5.498590209960938 2.01053994140625 Q 5.486965209960937 2.01691494140625 5.469340209960937 2.02178994140625 Q 5.451715209960938 2.02666494140625 5.432215209960937 2.02666494140625 Q 5.394715209960937 2.02666494140625 5.371090209960937 1.9977899414062499 Q 5.347465209960937 1.96891494140625 5.347465209960937 1.9096649414062499 L 5.347465209960937 1.66441494140625 L 5.294965209960937 1.6576649414062499 Q 5.293465209960937 1.65016494140625 5.293465209960937 1.6449149414062498 Q 5.293465209960937 1.63891494140625 5.294965209960937 1.6284149414062499 Q 5.315965209960937 1.62466494140625 5.3313402099609375 1.61528994140625 Q 5.346715209960937 1.60591494140625 5.357215209960938 1.58903994140625 Q 5.367715209960937 1.57216494140625 5.373340209960937 1.55903994140625 Q 5.3789652099609375 1.54591494140625 5.387215209960937 1.52116494140625 Q 5.393965209960937 1.51891494140625 5.403715209960938 1.51891494140625 Q 5.412715209960937 1.51891494140625 5.419465209960937 1.52116494140625 M 5.621603759765625 1.52491494140625 Q 5.621603759765625 1.47541494140625 5.619353759765625 1.45141494140625 L 5.560103759765624 1.44391494140625 Q 5.557103759765624 1.43266494140625 5.560103759765624 1.41541494140625 Q 5.610353759765625 1.4116649414062499 5.688353759765625 1.3996649414062499 Q 5.695103759765625 1.40716494140625 5.695853759765625 1.41466494140625 Q 5.692103759765625 1.4341649414062498 5.692103759765625 1.53616494140625 L 5.692103759765625 1.67791494140625 Q 5.747603759765624 1.60141494140625 5.825603759765625 1.60141494140625 Q 5.872103759765625 1.60141494140625 5.905103759765625 1.62466494140625 Q 5.9381037597656245 1.64791494140625 5.9381037597656245 1.7041649414062499 L 5.9381037597656245 1.97341494140625 L 5.998853759765625 1.98466494140625 Q 6.001853759765625 1.99666494140625 5.998853759765625 2.01466494140625 Q 5.951603759765625 2.01241494140625 5.902853759765625 2.01241494140625 Q 5.868353759765625 2.01241494140625 5.805353759765625 2.01391494140625 Q 5.800853759765625 1.99966494140625 5.805353759765625 1.98466494140625 L 5.864603759765624 1.97641494140625 Q 5.8676037597656245 1.93516494140625 5.8676037597656245 1.88116494140625 L 5.8676037597656245 1.74166494140625 Q 5.8676037597656245 1.68916494140625 5.854478759765625 1.66591494140625 Q 5.841353759765624 1.64266494140625 5.806853759765625 1.64266494140625 Q 5.778353759765625 1.64266494140625 5.747228759765624 1.6636649414062499 Q 5.716103759765625 1.68466494140625 5.692103759765625 1.72441494140625 L 5.692103759765625 1.97341494140625 L 5.752853759765625 1.98466494140625 Q 5.755853759765625 1.99666494140625 5.752853759765625 2.01466494140625 Q 5.705603759765625 2.01241494140625 5.6568537597656245 2.01241494140625 Q 5.622353759765625 2.01241494140625 5.559353759765624 2.01391494140625 Q 5.554853759765625 1.99966494140625 5.559353759765624 1.98466494140625 L 5.618603759765625 1.97641494140625 Q 5.621603759765625 1.93516494140625 5.621603759765625 1.88116494140625 L 5.621603759765625 1.52491494140625 M 6.1679575195312495 1.73266494140625 L 6.1679575195312495 1.97341494140625 L 6.22870751953125 1.98466494140625 Q 6.22945751953125 1.98841494140625 6.22983251953125 1.9914149414062499 Q 6.23020751953125 1.99441494140625 6.23020751953125 1.99816494140625 Q 6.23020751953125 2.00191494140625 6.22983251953125 2.0060399414062497 Q 6.22945751953125 2.01016494140625 6.22870751953125 2.01466494140625 Q 6.18145751953125 2.01241494140625 6.13195751953125 2.01241494140625 Q 6.11470751953125 2.01241494140625 6.09033251953125 2.01278994140625 Q 6.06595751953125 2.01316494140625 6.03445751953125 2.01391494140625 Q 6.03220751953125 2.00716494140625 6.03220751953125 1.99966494140625 Q 6.03220751953125 1.99291494140625 6.03445751953125 1.98466494140625 L 6.09370751953125 1.97641494140625 Q 6.095207519531249 1.95541494140625 6.095957519531249 1.93178994140625 Q 6.0967075195312495 1.90816494140625 6.0967075195312495 1.88116494140625 L 6.0967075195312495 1.72141494140625 Q 6.0967075195312495 1.67191494140625 6.094457519531249 1.64791494140625 L 6.03520751953125 1.6404149414062499 Q 6.03370751953125 1.63666494140625 6.03370751953125 1.62766494140625 Q 6.03370751953125 1.62391494140625 6.03370751953125 1.62016494140625 Q 6.03370751953125 1.61641494140625 6.03520751953125 1.61191494140625 Q 6.08620751953125 1.60891494140625 6.164207519531249 1.59616494140625 Q 6.17095751953125 1.60366494140625 6.17170751953125 1.6111649414062499 Q 6.1679575195312495 1.63216494140625 6.1679575195312495 1.73266494140625 M 6.05845751953125 1.4649149414062501 Q 6.05695751953125 1.46116494140625 6.05695751953125 1.4570399414062498 Q 6.05695751953125 1.45291494140625 6.05695751953125 1.44916494140625 Q 6.05695751953125 1.42891494140625 6.0738325195312495 1.41653994140625 Q 6.09070751953125 1.40416494140625 6.11545751953125 1.40416494140625 Q 6.13870751953125 1.40416494140625 6.15333251953125 1.4180399414062501 Q 6.1679575195312495 1.43191494140625 6.1679575195312495 1.45591494140625 Q 6.1679575195312495 1.47541494140625 6.15108251953125 1.48741494140625 Q 6.13420751953125 1.49941494140625 6.10795751953125 1.49941494140625 Q 6.08995751953125 1.49941494140625 6.07608251953125 1.49041494140625 Q 6.06220751953125 1.4814149414062499 6.05845751953125 1.4649149414062501 M 6.580080688476563 1.74391494140625 Q 6.580080688476563 1.68616494140625 6.564705688476562 1.66291494140625 Q 6.549330688476562 1.63966494140625 6.513330688476563 1.63966494140625 Q 6.457830688476562 1.63966494140625 6.401580688476562 1.72291494140625 L 6.401580688476562 1.97341494140625 L 6.462330688476563 1.98466494140625 Q 6.465330688476563 1.99666494140625 6.462330688476563 2.01466494140625 Q 6.4150806884765625 2.01241494140625 6.365580688476562 2.01241494140625 Q 6.331080688476562 2.01241494140625 6.268080688476562 2.01391494140625 Q 6.263580688476562 1.99966494140625 6.268080688476562 1.98466494140625 L 6.327330688476563 1.97641494140625 Q 6.330330688476562 1.93516494140625 6.330330688476562 1.88116494140625 L 6.330330688476562 1.6756649414062499 Q 6.330330688476562 1.66066494140625 6.328080688476562 1.64791494140625 L 6.268830688476562 1.6404149414062499 Q 6.265830688476562 1.62916494140625 6.268830688476562 1.61191494140625 Q 6.3205806884765625 1.60816494140625 6.397830688476562 1.59616494140625 Q 6.404580688476562 1.60366494140625 6.405330688476562 1.6111649414062499 Q 6.401580688476562 1.63066494140625 6.401580688476562 1.67791494140625 Q 6.4608306884765625 1.59616494140625 6.535080688476563 1.59616494140625 Q 6.651330688476563 1.59616494140625 6.651330688476563 1.70641494140625 L 6.651330688476563 1.97341494140625 L 6.712080688476562 1.98466494140625 Q 6.715080688476562 1.99666494140625 6.712080688476562 2.01466494140625 Q 6.664830688476562 2.01241494140625 6.615330688476562 2.01241494140625 Q 6.580830688476563 2.01241494140625 6.517830688476562 2.01391494140625 Q 6.513330688476563 1.99966494140625 6.517830688476562 1.98466494140625 L 6.5770806884765625 1.97641494140625 Q 6.580080688476563 1.93516494140625 6.580080688476563 1.88116494140625 L 6.580080688476563 1.74391494140625 M 6.8144736328125 2.01991494140625 Q 6.8212236328125 2.02291494140625 6.8257236328125 2.03266494140625 Q 6.8009736328125 2.0529149414062497 6.8009736328125 2.09341494140625 Q 6.8009736328125 2.12941494140625 6.8339736328125 2.15116494140625 Q 6.8669736328125 2.17291494140625 6.9194736328125 2.17291494140625 Q 6.9734736328124995 2.17291494140625 7.0094736328125 2.15303994140625 Q 7.0454736328125 2.13316494140625 7.0454736328125 2.09716494140625 Q 7.0454736328125 2.05816494140625 7.0312236328125 2.03978994140625 Q 7.016973632812499 2.02141494140625 6.9742236328125 2.0176649414062497 L 6.8339736328125 2.00491494140625 Q 6.8107236328125 2.00191494140625 6.7953486328125 1.98053994140625 Q 6.7799736328125 1.95916494140625 6.7799736328125 1.9389149414062499 L 6.8302236328124994 1.85566494140625 Q 6.7957236328125 1.83616494140625 6.7780986328125 1.8039149414062499 Q 6.7604736328124995 1.77166494140625 6.7604736328124995 1.73791494140625 Q 6.7604736328124995 1.67416494140625 6.8077236328124995 1.63516494140625 Q 6.8549736328124995 1.59616494140625 6.9164736328125 1.59616494140625 Q 6.9757236328125 1.59616494140625 7.0207236328125 1.62766494140625 Q 7.0244736328125 1.52491494140625 7.0972236328125 1.52116494140625 Q 7.1167236328125 1.52566494140625 7.1167236328125 1.55341494140625 Q 7.1167236328125 1.56841494140625 7.1137236328124995 1.5864149414062498 Q 7.0844736328125 1.58866494140625 7.0657236328124995 1.60553994140625 Q 7.0469736328125 1.6224149414062499 7.0387236328125 1.64416494140625 Q 7.0762236328125 1.68166494140625 7.0762236328125 1.73791494140625 Q 7.0762236328125 1.79716494140625 7.0282236328125 1.83653994140625 Q 6.9802236328125 1.87591494140625 6.9164736328125 1.87591494140625 Q 6.8827236328125 1.87591494140625 6.8557236328124995 1.86691494140625 L 6.8302236328124994 1.93366494140625 L 7.016973632812499 1.95241494140625 Q 7.0604736328125 1.95766494140625 7.0833486328125 1.98428994140625 Q 7.1062236328125 2.01091494140625 7.1062236328125 2.0536649414062498 Q 7.1062236328125 2.12866494140625 7.0522236328125 2.16878994140625 Q 6.9982236328125 2.20891494140625 6.9059736328125 2.20891494140625 Q 6.8294736328125 2.20891494140625 6.7867236328125 2.18116494140625 Q 6.7439736328125 2.15341494140625 6.7439736328125 2.10691494140625 Q 6.7439736328125 2.07541494140625 6.7642236328125 2.05103994140625 Q 6.7844736328124995 2.02666494140625 6.8144736328125 2.01991494140625 M 6.8279736328125 1.73791494140625 Q 6.8279736328125 1.78141494140625 6.8523486328125 1.81216494140625 Q 6.876723632812499 1.84291494140625 6.9172236328125 1.84291494140625 Q 6.9569736328125 1.84291494140625 6.9824736328125 1.81253994140625 Q 7.0079736328125 1.78216494140625 7.0079736328125 1.73791494140625 Q 7.0079736328125 1.68991494140625 6.9828486328125 1.6580399414062499 Q 6.9577236328125 1.62616494140625 6.9172236328125 1.62616494140625 Q 6.8789736328124995 1.62616494140625 6.8534736328125 1.65841494140625 Q 6.8279736328125 1.69066494140625 6.8279736328125 1.73791494140625" fill="#382d5e" fill-rule="nonzero"></path></g></g><defs><clipPath id="SvgjsClipPath44312"><path d=" M 7.517463745117187 -1.1040195193974396 h 4.413423778048666 v 4.219703980201129 h -4.413423778048666 Z"></path></clipPath><clipPath id="SvgjsClipPath44310b8fa8361-2bab-49eb-9547-f060db4bb67d"><path d=" M 7.517463745117187 -1.1040195193974396 L 11.930887523165854 -1.1040195193974396 L 11.930887523165854 3.1156844608036893 L 7.517463745117187 3.1156844608036893 Z"></path></clipPath></defs></svg>